# xmcd
#
# Track frame offsets: 
#        150
#        18132
#        33337
#        48990
#        60332
#        81840
#        109072
#        140485
#        169812
#        188485
#        212540
#        241295
#        255647
#        269385
#        293672
#
# Disc length: 4145 seconds
#
# Revision: 4
# Processed by: cddbd v1.5.2PL0 Copyright (c) Steve Scherf et al.
# Submitted via: ExactAudioCopyFreeDBPlugin 1.0
#
DISCID=c4102f0f
DTITLE=Various Artist - Pavarotti  And Friends 2
DYEAR=1900
DGENRE=Classical
TTITLE0=Luciano Pavarotti - Chitarra Romana
TTITLE1=Luciano Pavarotti - Nancy Gustavson - Moon River
TTITLE2=Nancy Gustafson - All I Ask Of You
TTITLE3=Andrea Bocelli - Mattinata
TTITLE4=Luciano Pavarotti - Giorgia - Santa Lucia Luntana
TTITLE5=Andreas Vollenweider - Night Fire Dance
TTITLE6=Luciano Pavarotti - Nancy Gustavson - Verranno A Te
TTITLE7=Bryan Adams - Please Forgive Me
TTITLE8=Giorgia - Who Wants To Live Forever
TTITLE9=Luciano Pavarotti - Andrea Bocelli - Notte 'e Piscatore
TTITLE10=Nancy Gustafson - O Silver Moon
TTITLE11=Luciano Pavarotti - Bryan Adams - O Sole Mio
TTITLE12=Luciano Pavarotti - Andreas Vollenweider - Ave Maria
TTITLE13=All For Love
TTITLE14=Brindisi
EXTD=ID3G:  32
EXTT0=
EXTT1=
EXTT2=
EXTT3=
EXTT4=
EXTT5=
EXTT6=
EXTT7=
EXTT8=
EXTT9=
EXTT10=
EXTT11=
EXTT12=
EXTT13=
EXTT14=
PLAYORDER=
